<svg width="430" height="430" viewBox="0 0 430 430" fill="none" xmlns="http://www.w3.org/2000/svg">
<path fill-rule="evenodd" clip-rule="evenodd" d="M215 44C170.314 44 134 80.3143 134 125C134 169.686 170.314 206 215 206C259.68 206 296 169.797 296 125C296 105.192 288.897 86.972 277.097 72.8805L277.081 72.8624C262.203 55.2367 239.972 44 215 44ZM146 125C146 86.9417 176.942 56 215 56C236.276 56 255.202 65.5517 267.904 80.5945C277.952 92.5979 284 108.108 284 125C284 163.159 253.064 194 215 194C176.942 194 146 163.058 146 125Z" fill="url(#paint0_linear_2423_6952)"/>
<path fill-rule="evenodd" clip-rule="evenodd" d="M170 229C103.174 229 49 283.174 49 350V375C49 378.314 51.6863 381 55 381H375C378.314 381 381 378.314 381 375V350C381 283.174 326.826 229 260 229H170ZM61 350C61 289.801 109.801 241 170 241H260C320.199 241 369 289.801 369 350V369H61V350Z" fill="url(#paint1_linear_2423_6952)"/>
<defs>
<linearGradient id="paint0_linear_2423_6952" x1="97.6901" y1="93.4089" x2="335.9" y2="328.018" gradientUnits="userSpaceOnUse">
<stop stop-color="#CB5EEE"/>
<stop offset="1" stop-color="#4BE1EC"/>
</linearGradient>
<linearGradient id="paint1_linear_2423_6952" x1="97.6901" y1="93.4089" x2="335.9" y2="328.018" gradientUnits="userSpaceOnUse">
<stop stop-color="#CB5EEE"/>
<stop offset="1" stop-color="#4BE1EC"/>
</linearGradient>
</defs>
</svg>
